<svg width="800" height="600" xmlns="http://www.w3.org/2000/svg">
 <!-- Created with Method Draw - http://github.com/duopixel/Method-Draw/ -->

 <g>
  <title>background</title>
  <rect fill="#eeffff" id="canvas_background" height="50" width="800" y="0" x="0"/>
  <rect fill="#404040" id="Pavement" height="10" width="800" y="50" x="0"/>
  <g display="Ground" overflow="visible" y="60" x="0" height="540" width="800" id="canvasGrid">
   <rect fill="#806050" stroke-width="0" y="10%" x="0" height="90%" width="100%"/>
  </g>
 </g>
 <g>
  <title>Structure</title>
  <rect fill="#aaa" stroke="#000" stroke-width="3" x="150" y="100" width="500" height="400" id="Outline"/>
  <path fill="#FFF" stroke="#000" stroke-width="3" stroke-linejoin="undefined" stroke-linecap="undefined" d="m200,385l0,-205l20,-20l360,0l20,20l0,215l-95,10l-5,10l-200,-10l-5,-10l-95,-10z" id="Air"/>
  <path fill="#804040" stroke="#000" stroke-width="3" stroke-linejoin="undefined" stroke-linecap="undefined" d="m200,385l95,10l5,10l200,10l5,-10l95,-10l0,30l-20,20l-360,0l-20,-20l0,-190l0,150z" id="Pavement"/>
 </g>
 <g>
  <title>Annotation</title>
  <path stroke="#0000ff" id="svg_19" d="m299.33279,166.66623l199.16632,0l0,238.33301l-199.16632,0l0,-238.33301z" stroke-linecap="null" stroke-linejoin="null" stroke-dasharray="2,2" stroke-width="2" fill="#ffffff"/>
  <text fill="#000000" stroke="#000" stroke-width="0" stroke-opacity="null" fill-opacity="null" x="352" y="357.66674" id="svg_3" font-size="16" font-family="Helvetica, Arial, sans-serif" text-anchor="start" xml:space="preserve">Roadway</text>
  <text fill="#000000" stroke="#000" stroke-width="0" stroke-opacity="null" fill-opacity="null" x="229.34371" y="354.66668" id="svg_3" font-size="16" font-family="Helvetica, Arial, sans-serif" text-anchor="start" xml:space="preserve">Left</text>
  <text style="cursor: move;" fill="#000000" stroke="#000" stroke-width="0" stroke-opacity="null" fill-opacity="null" x="527.98946" y="354.66668" id="svg_3" font-size="16" font-family="Helvetica, Arial, sans-serif" text-anchor="start" xml:space="preserve">Right</text>
  <text style="cursor: move;" fill="#000000" stroke="#000" stroke-width="0" stroke-opacity="null" fill-opacity="null" x="202.16687" y="282.66665" id="svg_4" font-size="16" font-family="Helvetica, Arial, sans-serif" text-anchor="start" xml:space="preserve">Structural</text>
  <text fill="#000000" stroke="#000" stroke-width="0" stroke-opacity="null" fill-opacity="null" x="228.66849" y="136.00007" id="svg_5" font-size="16" font-family="Helvetica, Arial, sans-serif" text-anchor="start" xml:space="preserve">Roof thickness</text>
  <text fill="#000000" stroke="#000" stroke-width="0" stroke-opacity="null" fill-opacity="null" x="229.66847" y="478.00004" id="svg_6" font-size="16" font-family="Helvetica, Arial, sans-serif" text-anchor="start" xml:space="preserve">Base thickness</text>
  <text fill="#000000" stroke="#000" stroke-width="0" stroke-opacity="null" fill-opacity="null" x="94" y="228" id="svg_7" font-size="16" font-family="Helvetica, Arial, sans-serif" text-anchor="start" xml:space="preserve">Wall</text>
  <text fill="#000000" stroke="#000" stroke-width="0" stroke-opacity="null" fill-opacity="null" x="49.5" y="258" id="svg_8" font-size="16" font-family="Helvetica, Arial, sans-serif" text-anchor="start" xml:space="preserve">thickness</text>
  <path stroke="#000000" fill="#000000" stroke-linejoin="undefined" stroke-linecap="undefined" d="m223.33403,51.33523l0,216.99815l0,-216.99815z" id="svg_10"/>
  <line stroke="#000000" stroke-linecap="null" stroke-linejoin="null" id="svg_13" y2="366.5" x2="598" y1="365.5" x1="200" fill-opacity="null" fill="none"/>
  <line stroke="#000000" stroke-linecap="null" stroke-linejoin="null" id="svg_14" y2="360.50007" x2="299.66668" y1="404.5" x1="300" fill-opacity="null" stroke-opacity="null" fill="none"/>
  <line stroke="#000000" stroke-linecap="null" stroke-linejoin="null" id="svg_16" y2="364.8334" x2="498.33298" y1="414.49998" x1="498.66631" fill-opacity="null" stroke-opacity="null" fill="none"/>
  <text transform="matrix(1 0 0 1 0 0)" xml:space="preserve" text-anchor="start" font-family="Helvetica, Arial, sans-serif" font-size="16" id="svg_17" y="386.33263" x="527.99903" fill-opacity="null" stroke-opacity="null" stroke-width="0" stroke="#000000" fill="#000000">Verge</text>
  <text transform="matrix(1 0 0 1 0 0)" xml:space="preserve" text-anchor="start" font-family="Helvetica, Arial, sans-serif" font-size="16" id="svg_18" y="383.66596" x="229.33291" fill-opacity="null" stroke-opacity="null" stroke-width="0" stroke="#000000" fill="#000000">Verge</text>
  <text xml:space="preserve" text-anchor="start" font-family="Helvetica, Arial, sans-serif" font-size="16" id="svg_20" y="298.00002" x="214.59418" fill-opacity="null" stroke-width="0" stroke="#666666" fill="#000000">height</text>
  <path stroke="#000000" id="svg_23" d="m220.06136,62.34219l3.16161,-8.97021l3.16161,8.97021l-6.32321,0z" stroke-width="2" fill="#000000"/>
  <path transform="rotate(180 223.223 152.855)" stroke="#000000" id="svg_24" d="m220.06134,157.34047l3.16162,-8.97021l3.16159,8.97021l-6.32321,0z" stroke-width="2" fill="#000000"/>
  <path stroke="#000000" id="svg_25" d="m220.39467,111.34131l3.16162,-8.97021l3.16159,8.97021l-6.32321,0z" stroke-width="2" fill="#000000"/>
  <path transform="rotate(-90 207.724 365.35)" stroke="#000000" id="svg_26" d="m204.5621,369.83527l3.16162,-8.97021l3.16159,8.97021l-6.32321,0z" stroke-width="2" fill="#000000"/>
  <path transform="rotate(180 222.057 437.015)" stroke="#000000" id="svg_27" d="m218.89505,441.50006l3.16162,-8.97018l3.16159,8.97018l-6.32321,0z" stroke-width="2" fill="#000000"/>
  <path stroke="#000000" id="svg_28" d="m220.22836,171.50713l3.16162,-8.97021l3.16159,8.97021l-6.32321,0z" stroke-width="2" fill="#000000"/>
  <path stroke="#000000" fill="#000000" stroke-linejoin="undefined" stroke-linecap="undefined" d="m222.1674,303.1629l0,194.49832l0,-194.49832z" id="svg_29"/>
  <path transform="rotate(90 292.721 365.517)" stroke="#000000" id="svg_30" d="m289.55988,370.00192l3.16162,-8.97021l3.16159,8.97021l-6.32321,0z" stroke-width="2" fill="#000000"/>
  <path transform="rotate(-90 307.555 365.683)" stroke="#000000" id="svg_31" d="m304.39282,370.16858l3.16162,-8.97021l3.16159,8.97021l-6.32321,0z" stroke-width="2" fill="#000000"/>
  <path transform="rotate(90 490.883 366.184)" stroke="#000000" id="svg_32" d="m487.72137,370.66858l3.16162,-8.97021l3.16159,8.97021l-6.32321,0z" stroke-width="2" fill="#000000"/>
  <path transform="rotate(90 592.38 366.351)" stroke="#000000" id="svg_33" d="m589.21875,370.83524l3.16162,-8.97021l3.16156,8.97021l-6.32318,0z" stroke-width="2" fill="#000000"/>
  <path transform="rotate(-90 503.716 366.35)" stroke="#000000" id="svg_34" d="m500.55438,370.83524l3.16162,-8.97021l3.16159,8.97021l-6.32321,0z" stroke-width="2" fill="#000000"/>
  <path transform="rotate(180 223.223 93.5227)" stroke="#000000" id="svg_35" d="m220.06134,98.0082l3.16162,-8.97021l3.16159,8.97021l-6.32321,0z" stroke-width="2" fill="#000000"/>
  <text fill="#000000" stroke="#000" stroke-width="0" stroke-opacity="null" fill-opacity="null" x="232.00176" y="85.00099" id="svg_36" font-size="16" font-family="Helvetica, Arial, sans-serif" text-anchor="start" xml:space="preserve">Cover (pavement)</text>
  <path transform="rotate(180 221.724 492.347)" stroke="#000000" id="svg_37" d="m218.56172,496.8324l3.16162,-8.97018l3.16159,8.97018l-6.32321,0z" stroke-width="2" fill="#000000"/>
  <path stroke="#000000" id="svg_38" d="m218.89505,456.16647l3.16162,-8.97018l3.16159,8.97018l-6.32321,0z" stroke-width="2" fill="#000000"/>
  <line stroke="#000000" stroke-linecap="null" stroke-linejoin="null" id="svg_39" y2="159.49079" x2="690.51947" y1="159.99071" x1="588.0118" fill-opacity="null" fill="none"/>
  <line stroke="#000000" stroke-linecap="null" stroke-linejoin="null" id="svg_40" y2="179.5" x2="692" y1="179" x1="606.5" fill-opacity="null" fill="none"/>
  <line stroke="#000000" stroke-linecap="null" stroke-linejoin="null" id="svg_41" y2="81.5" x2="579" y1="154" x1="579" fill-opacity="null" fill="none"/>
  <text transform="matrix(1 0 0 1 0 0)" fill="#000000" stroke="#000" stroke-width="0" stroke-opacity="null" fill-opacity="null" x="659.5" y="174.5" id="svg_42" font-size="16" font-family="Helvetica, Arial, sans-serif" text-anchor="start" xml:space="preserve">Top haunch height</text>
  <line stroke="#000000" stroke-linecap="null" stroke-linejoin="null" id="svg_43" y2="425.99079" x2="689.51947" y1="426.49071" x1="607.0118" fill-opacity="null" fill="none"/>
  <line stroke="#000000" stroke-linecap="null" stroke-linejoin="null" id="svg_44" y2="446" x2="691" y1="445.5" x1="588" fill-opacity="null" fill="none"/>
  <text fill="#000000" stroke="#000" stroke-width="0" stroke-opacity="null" fill-opacity="null" x="659.5" y="441" id="svg_45" font-size="16" font-family="Helvetica, Arial, sans-serif" text-anchor="start" xml:space="preserve">Bottom haunch</text>
  <line stroke="#000000" stroke-linecap="null" stroke-linejoin="null" id="svg_46" y2="82.5" x2="600.5" y1="172.5" x1="600.5" fill-opacity="null" fill="none"/>
  <text fill="#000000" stroke="#000" stroke-width="0" stroke-opacity="null" fill-opacity="null" x="543.30469" y="80" id="svg_47" font-size="16" font-family="Helvetica, Arial, sans-serif" text-anchor="start" xml:space="preserve">Top haunch width</text>
  <text fill="#000000" stroke="#000" stroke-width="0" stroke-opacity="null" fill-opacity="null" x="659.5" y="467.5" id="svg_48" font-size="16" font-family="Helvetica, Arial, sans-serif" text-anchor="start" xml:space="preserve">height</text>
  <line stroke="#000000" stroke-linecap="null" stroke-linejoin="null" id="svg_49" y2="452" x2="581" y1="524.5" x1="581" fill-opacity="null" fill="none"/>
  <line stroke="#000000" stroke-linecap="null" stroke-linejoin="null" id="svg_50" y2="432.5" x2="600" y1="524.50001" x1="600" fill-opacity="null" fill="none"/>
  <text transform="matrix(1 0 0 1 0 0)" fill="#000000" stroke="#000" stroke-width="0" stroke-opacity="null" fill-opacity="null" x="531.75" y="548" id="svg_51" font-size="16" font-family="Helvetica, Arial, sans-serif" text-anchor="start" xml:space="preserve">Bottom haunch width</text>
  <line stroke="#000000" stroke-linecap="null" stroke-linejoin="null" id="svg_52" y2="241" x2="199" y1="241" x1="113.5" fill-opacity="null" stroke-opacity="null" stroke-width="null" fill="none"/>
  <path transform="rotate(90 191.222 241.017)" stroke="#000000" id="svg_53" d="m188.05988,245.50192l3.16162,-8.97021l3.16159,8.97021l-6.32321,0z" stroke-width="2" fill="#000000"/>
  <path transform="rotate(90 141.722 241.017)" stroke="#000000" id="svg_54" d="m138.55988,245.50192l3.16162,-8.97021l3.16159,8.97021l-6.32321,0z" stroke-width="2" fill="#000000"/>
  <path stroke="#000000" fill="#000000" stroke-linejoin="undefined" stroke-linecap="undefined" d="m328.33405,168.83525l0,234.49812l0,-234.49812z" id="svg_55"/>
  <path stroke="#000000" id="svg_56" d="m325.22836,177.00713l3.16162,-8.97021l3.16159,8.97021l-6.32321,0z" stroke-width="2" fill="#000000"/>
  <path transform="rotate(180 327.557 397.015)" stroke="#000000" id="svg_57" d="m324.39505,401.50006l3.16162,-8.97018l3.16159,8.97018l-6.32321,0z" stroke-width="2" fill="#000000"/>
  <text transform="matrix(1 0 0 1 0 0)" fill="#000000" stroke="#000" stroke-width="0" stroke-opacity="null" x="334.5" y="207.5" id="svg_2" font-size="16" font-family="Helvetica, Arial, sans-serif" text-anchor="start" xml:space="preserve">Vertical clearance</text>
  <text fill="#000000" stroke="#000" stroke-width="0" stroke-opacity="null" x="334.5" y="227.5" id="svg_58" font-size="16" font-family="Helvetica, Arial, sans-serif" text-anchor="start" xml:space="preserve">height</text>
 </g>
</svg>